<?xml version="1.0" encoding="iso-8859-1"?>
<!-- Uploaded to: SVG Repo, www.svgrepo.com, Generator: SVG Repo Mixer Tools -->
<svg fill="#000000" height="800px" width="800px" version="1.1" id="Layer_1" xmlns="http://www.w3.org/2000/svg" xmlns:xlink="http://www.w3.org/1999/xlink" 
	 viewBox="0 0 330 330" xml:space="preserve">
<path id="XMLID_232_" d="M315,0h-60h-60h-60H75H15C6.716,0,0,6.716,0,15v0.017V75v0.001v60V315c0,8.284,6.716,15,15,15
	s15-6.716,15-15V150.001h45h60h60h60h45V315c0,8.284,6.716,15,15,15c8.284,0,15-6.716,15-15V135.001v-60V75V15
	C330,6.716,323.284,0,315,0z M300,60h-30V30h30V60z M240,60h-30V30h30V60z M180,60h-30V30h30V60z M120,60H90V30h30V60z M60,60H30V30
	h30V60z M30,90.001h30v30H30V90.001z M90,90.001h30v30H90V90.001z M150,90.001h30v30h-30V90.001z M210,90.001h30v30h-30V90.001z
	 M270,120.001v-30h30v30H270z"/>
</svg>